<svg width="76" height="24" viewBox="0 0 76 24" fill="none" xmlns="http://www.w3.org/2000/svg">
<path d="M1.2642 4.45455V19H4.24716V9.49716H4.3679L8.1321 18.929H10.1634L13.9276 9.53267H14.0483V19H17.0312V4.45455H13.2386L9.23295 14.2273H9.0625L5.05682 4.45455H1.2642ZM21.3761 23.0909C23.6275 23.0909 24.8207 21.9403 25.4386 20.179L29.6786 8.10511L26.4755 8.09091L24.1957 16.1023H24.082L21.8235 8.09091H18.6417L22.555 19.3125L22.3775 19.7741C21.9798 20.7969 21.2198 20.8466 20.1545 20.5199L19.4727 22.7784C19.9059 22.9631 20.609 23.0909 21.3761 23.0909Z" fill="white"/>
<path d="M45.5575 9.15625H48.6825C48.2848 6.27983 45.7493 4.25568 42.4609 4.25568C38.6186 4.25568 35.657 7.02557 35.657 11.7415C35.657 16.3438 38.4268 19.1989 42.5249 19.1989C46.1967 19.1989 48.8175 16.8764 48.8175 13.0483V11.2159H42.7308V13.5312H45.8558C45.8132 15.3352 44.5845 16.4787 42.5391 16.4787C40.2308 16.4787 38.7749 14.7528 38.7749 11.7131C38.7749 8.6875 40.2876 6.97585 42.5107 6.97585C44.0945 6.97585 45.1669 7.79261 45.5575 9.15625ZM51.7543 19H54.7798V8.09091H51.7543V19ZM53.2741 6.68466C54.1761 6.68466 54.9148 5.99574 54.9148 5.15057C54.9148 4.3125 54.1761 3.62358 53.2741 3.62358C52.3793 3.62358 51.6406 4.3125 51.6406 5.15057C51.6406 5.99574 52.3793 6.68466 53.2741 6.68466ZM57.2035 19H60.229V12.8281C60.229 11.4858 61.2092 10.5625 62.5444 10.5625C62.9634 10.5625 63.5387 10.6335 63.8228 10.7259V8.04119C63.5529 7.97727 63.1765 7.93466 62.8711 7.93466C61.6495 7.93466 60.6481 8.64489 60.2504 9.99432H60.1367V8.09091H57.2035V19ZM69.8082 19.2131C73.1179 19.2131 75.1776 16.9474 75.1776 13.5881C75.1776 10.2074 73.1179 7.94886 69.8082 7.94886C66.4986 7.94886 64.4389 10.2074 64.4389 13.5881C64.4389 16.9474 66.4986 19.2131 69.8082 19.2131ZM69.8224 16.8693C68.2955 16.8693 67.5142 15.4702 67.5142 13.5668C67.5142 11.6634 68.2955 10.2571 69.8224 10.2571C71.321 10.2571 72.1023 11.6634 72.1023 13.5668C72.1023 15.4702 71.321 16.8693 69.8224 16.8693Z" fill="#EB7575"/>
</svg>
